<svg width="82" height="69" viewBox="0 0 82 69" fill="none" xmlns="http://www.w3.org/2000/svg">
<path d="M46.1739 38.0805L30.4959 39.5211L27.8776 45.918L42.1216 44.6092L38.9578 52.3387L24.7138 53.6476L19.5135 66.3525L8.99776 67.3187L14.1981 54.6138L5.8811 55.3781L9.04492 47.6485L17.3619 46.8843L20.0166 40.3985L11.6996 41.1628L15.2271 32.5448L23.5441 31.7805L34.4538 5.12687L61.6034 2.63217C67.2118 2.11683 71.1611 3.40701 73.4514 6.50272C75.7659 9.5392 75.8686 13.634 73.7594 18.787C71.7714 23.6439 68.1108 27.9419 62.7775 31.6811C57.4443 35.4204 51.9097 37.5535 46.1739 38.0805ZM56.7199 12.3153L41.042 13.7559L34.0598 30.8143L49.7377 29.3737C52.5419 29.116 55.2394 28.0701 57.8302 26.236C60.4209 24.4018 62.2254 22.2409 63.2437 19.7533C64.2134 17.384 64.0696 15.4877 62.8123 14.0641C61.6186 12.6347 59.5879 12.0518 56.7199 12.3153Z" fill="#172C67"/>
</svg>
