<svg width="108" height="91" viewBox="0 0 108 91" fill="none" xmlns="http://www.w3.org/2000/svg">
<path d="M61.1581 50.6065L40.2542 52.5273L36.7631 61.0565L55.7551 59.3114L51.5366 69.6175L32.5446 71.3626L25.6109 88.3025L11.59 89.5908L18.5237 72.6509L7.43443 73.6699L11.6529 63.3638L22.7421 62.3448L26.2817 53.6972L15.1925 54.7162L19.8958 43.2255L30.9851 42.2065L45.5314 6.6683L81.7309 3.34203C89.2087 2.65491 94.4745 4.37516 97.5282 8.50277C100.614 12.5514 100.751 18.0111 97.9388 24.8818C95.2882 31.3577 90.4073 37.0884 83.2963 42.074C76.1853 47.0596 68.8059 49.9038 61.1581 50.6065ZM75.2196 16.2529L54.3156 18.1737L45.006 40.9182L65.9099 38.9974C69.6488 38.6538 73.2455 37.2593 76.6998 34.8138C80.1542 32.3683 82.5602 29.487 83.9179 26.1701C85.2109 23.0112 85.0191 20.4827 83.3427 18.5846C81.7512 16.6788 79.0435 15.9015 75.2196 16.2529Z" fill="#0F1E4D"/>
</svg>
