<svg width="94" height="87" viewBox="0 0 94 87" fill="none" xmlns="http://www.w3.org/2000/svg">
<path d="M33.3154 49.9365L54.2193 48.0157C61.8671 47.313 69.2465 44.4688 76.3575 39.4832C83.4685 34.4976 88.3493 28.7668 91 22.291C93.8123 15.4203 93.6754 9.96059 90.5894 5.91196C87.5356 1.78435 82.2699 0.0640987 74.792 0.751215C68.8341 6.72366 63.621 11.638 58.527 15.9938L68.2807 13.6621C72.1046 13.3107 74.8123 14.088 76.4038 15.9938C78.0803 17.8919 78.2721 20.4204 76.979 23.5793C75.6214 26.8962 73.2154 29.7774 69.761 32.2229C66.3067 34.6685 62.71 36.063 58.9711 36.4066L38.0672 38.3274L40.5 29.5466C35.6028 32.783 30.2543 36.0308 24.0462 39.6157L10.5 46.5001L8.25364 52.1254L19.3429 51.1064L15.8033 59.754L4.71404 60.773L0.495605 71.0791L11.5849 70.0601L4.65115 87L18.6721 85.7116L25.6058 68.7718L44.5978 67.0266L48.8162 56.7206L29.8243 58.4657L33.3154 49.9365Z" fill="#1F2C58"/>
</svg>
