<svg width="19" height="11" viewBox="0 0 19 11" fill="none" xmlns="http://www.w3.org/2000/svg">
<path d="M17.8528 0.947091C17.6066 0.701035 17.2729 0.562809 16.9248 0.562809C16.5768 0.562809 16.243 0.701035 15.9969 0.947091L9.50003 7.44397L3.00315 0.947091C2.75561 0.708009 2.42407 0.575716 2.07994 0.578707C1.7358 0.581697 1.40661 0.719731 1.16326 0.963079C0.919916 1.20643 0.781883 1.53562 0.778893 1.87975C0.775902 2.22389 0.908194 2.55543 1.14728 2.80297L8.57209 10.2278C8.81822 10.4738 9.152 10.6121 9.50003 10.6121C9.84806 10.6121 10.1818 10.4738 10.428 10.2278L17.8528 2.80297C18.0988 2.55684 18.2371 2.22306 18.2371 1.87503C18.2371 1.527 18.0988 1.19322 17.8528 0.947091Z" fill="#292B26"/>
</svg>
