<svg width="12" height="16" viewBox="0 0 12 16" fill="none" xmlns="http://www.w3.org/2000/svg">
<path d="M5 6.5C5 6.22386 4.77614 6 4.5 6C4.22386 6 4 6.22386 4 6.5H5ZM4 12.5C4 12.7761 4.22386 13 4.5 13C4.77614 13 5 12.7761 5 12.5H4ZM8 6.5C8 6.22386 7.77614 6 7.5 6C7.22386 6 7 6.22386 7 6.5H8ZM7 12.5C7 12.7761 7.22386 13 7.5 13C7.77614 13 8 12.7761 8 12.5H7ZM2.31901 14.5865L2.54601 14.141H2.54601L2.31901 14.5865ZM1.66349 13.931L2.10899 13.704L2.10899 13.704L1.66349 13.931ZM10.3365 13.931L9.89101 13.704V13.704L10.3365 13.931ZM9.68099 14.5865L9.45399 14.141H9.45399L9.68099 14.5865ZM0.75 3.75C0.473858 3.75 0.25 3.97386 0.25 4.25C0.25 4.52614 0.473858 4.75 0.75 4.75V3.75ZM11.25 4.75C11.5261 4.75 11.75 4.52614 11.75 4.25C11.75 3.97386 11.5261 3.75 11.25 3.75V4.75ZM2.875 4.25C2.875 4.52614 3.09886 4.75 3.375 4.75C3.65114 4.75 3.875 4.52614 3.875 4.25H2.875ZM8.125 4.25C8.125 4.52614 8.34886 4.75 8.625 4.75C8.90114 4.75 9.125 4.52614 9.125 4.25H8.125ZM4 6.5V12.5H5V6.5H4ZM7 6.5V12.5H8V6.5H7ZM10 4.25V12.35H11V4.25H10ZM8.1 14.25H3.9V15.25H8.1V14.25ZM1 4.25V12.35H2V4.25H1ZM3.9 14.25C3.47171 14.25 3.18056 14.2496 2.95552 14.2312C2.73631 14.2133 2.62421 14.1809 2.54601 14.141L2.09202 15.032C2.33469 15.1557 2.59304 15.2049 2.87409 15.2279C3.1493 15.2504 3.48821 15.25 3.9 15.25V14.25ZM1 12.35C1 12.7618 0.999611 13.1007 1.0221 13.3759C1.04506 13.657 1.09434 13.9153 1.21799 14.158L2.10899 13.704C2.06915 13.6258 2.03669 13.5137 2.01878 13.2945C2.00039 13.0694 2 12.7783 2 12.35H1ZM2.54601 14.141C2.35785 14.0451 2.20487 13.8922 2.10899 13.704L1.21799 14.158C1.40973 14.5343 1.7157 14.8403 2.09202 15.032L2.54601 14.141ZM10 12.35C10 12.7783 9.99961 13.0694 9.98122 13.2945C9.96331 13.5137 9.93085 13.6258 9.89101 13.704L10.782 14.158C10.9057 13.9153 10.9549 13.657 10.9779 13.3759C11.0004 13.1007 11 12.7618 11 12.35H10ZM8.1 15.25C8.51179 15.25 8.8507 15.2504 9.12591 15.2279C9.40696 15.2049 9.66531 15.1557 9.90798 15.032L9.45399 14.141C9.37579 14.1809 9.26369 14.2133 9.04448 14.2312C8.81944 14.2496 8.52829 14.25 8.1 14.25V15.25ZM9.89101 13.704C9.79513 13.8922 9.64215 14.0451 9.45399 14.141L9.90798 15.032C10.2843 14.8403 10.5903 14.5343 10.782 14.158L9.89101 13.704ZM0.75 4.75H1.5V3.75H0.75V4.75ZM1.5 4.75H10.5V3.75H1.5V4.75ZM10.5 4.75H11.25V3.75H10.5V4.75ZM3.875 3.65C3.875 2.64189 4.78328 1.75 6 1.75V0.75C4.31723 0.75 2.875 2.00714 2.875 3.65H3.875ZM6 1.75C7.21672 1.75 8.125 2.64189 8.125 3.65H9.125C9.125 2.00714 7.68277 0.75 6 0.75V1.75ZM2.875 3.65V4.25H3.875V3.65H2.875ZM8.125 3.65V4.25H9.125V3.65H8.125Z" fill="#292B26"/>
</svg>
