<svg width="15" height="14" viewBox="0 0 15 14" fill="none" xmlns="http://www.w3.org/2000/svg">
<path d="M1.37989 10.9955L1.84805 11.171H1.84805L1.37989 10.9955ZM2.07419 9.14428L1.60604 8.9687H1.60603L2.07419 9.14428ZM2.7906 8.11407L3.12275 8.4878L3.12275 8.4878L2.7906 8.11407ZM9.70944 1.96495L9.37729 1.59122V1.59122L9.70944 1.96495ZM13.4164 5.25949L13.7485 5.63322V5.63322L13.4164 5.25949ZM6.49753 11.4086L6.16538 11.0349L6.16538 11.0349L6.49753 11.4086ZM5.33836 12.0453L5.48038 12.5247H5.48039L5.33836 12.0453ZM3.25547 12.6624L3.39749 13.1418L3.25547 12.6624ZM6.11753 11.7238L5.83909 11.3085L5.83909 11.3085L6.11753 11.7238ZM5.82554 11.8842L5.62369 11.4268L5.82554 11.8842ZM14.3094 2.8808L13.8727 3.1243V3.1243L14.3094 2.8808ZM14.3094 4.34363L13.8727 4.10014V4.10014L14.3094 4.34363ZM10.7399 1.17128L10.9415 1.62887V1.62887L10.7399 1.17128ZM12.3859 1.17128L12.1843 1.62887L12.1843 1.62887L12.3859 1.17128ZM2.25545 8.7113L2.69196 8.95515L2.69196 8.95515L2.25545 8.7113ZM2.43591 8.4518L2.05472 8.12823L2.05472 8.12823L2.43591 8.4518ZM1.0345 12.4702L0.570464 12.6564L1.0345 12.4702ZM1.59613 12.9693L1.44507 13.446H1.44507L1.59613 12.9693ZM9.11485 2.41488C8.90845 2.23144 8.59241 2.25005 8.40897 2.45646C8.22553 2.66286 8.24414 2.9789 8.45055 3.16234L9.11485 2.41488ZM12.1575 6.45688C12.3639 6.64032 12.6799 6.62171 12.8634 6.4153C13.0468 6.20889 13.0282 5.89286 12.8218 5.70942L12.1575 6.45688ZM7.85597 12.9958C7.57983 12.9958 7.35597 13.2197 7.35597 13.4958C7.35597 13.772 7.57983 13.9958 7.85597 13.9958V12.9958ZM14.3431 13.9958C14.6192 13.9958 14.8431 13.772 14.8431 13.4958C14.8431 13.2197 14.6192 12.9958 14.3431 12.9958V13.9958ZM1.84805 11.171L2.54235 9.31987L1.60603 8.9687L0.911738 10.8199L1.84805 11.171ZM3.12275 8.4878L10.0416 2.33868L9.37729 1.59122L2.45844 7.74034L3.12275 8.4878ZM13.0842 4.88576L6.16538 11.0349L6.82968 11.7823L13.7485 5.63322L13.0842 4.88576ZM5.19634 11.5659L3.11345 12.183L3.39749 13.1418L5.48038 12.5247L5.19634 11.5659ZM6.16538 11.0349C5.97129 11.2074 5.9075 11.2627 5.83909 11.3085L6.39597 12.1391C6.5337 12.0468 6.65454 11.938 6.82968 11.7823L6.16538 11.0349ZM5.48039 12.5247C5.71614 12.4549 5.87581 12.4086 6.0274 12.3417L5.62369 11.4268C5.54399 11.4619 5.45597 11.489 5.19634 11.5659L5.48039 12.5247ZM5.83909 11.3085C5.77225 11.3534 5.70018 11.393 5.62369 11.4268L6.0274 12.3417C6.15631 12.2848 6.27974 12.2171 6.39597 12.1391L5.83909 11.3085ZM13.0842 2.33868C13.3411 2.56701 13.5181 2.72457 13.649 2.85481C13.778 2.98322 13.8379 3.0619 13.8727 3.1243L14.7461 2.63731C14.6458 2.45748 14.5119 2.30278 14.3545 2.14608C14.1989 1.99122 13.9969 1.81197 13.7485 1.59122L13.0842 2.33868ZM13.7485 5.63322C13.9969 5.41247 14.1989 5.23321 14.3545 5.07835C14.5119 4.92165 14.6458 4.76696 14.7461 4.58712L13.8727 4.10014C13.8379 4.16253 13.778 4.24122 13.649 4.36962C13.5181 4.49986 13.3411 4.65742 13.0842 4.88576L13.7485 5.63322ZM13.8727 3.1243C14.0453 3.4338 14.0453 3.79063 13.8727 4.10014L14.7461 4.58712C15.0875 3.9749 15.0875 3.24954 14.7461 2.63731L13.8727 3.1243ZM10.0416 2.33868C10.5744 1.86512 10.7586 1.70941 10.9415 1.62887L10.5384 0.713697C10.1762 0.873225 9.85504 1.16661 9.37729 1.59122L10.0416 2.33868ZM13.7485 1.59122C13.2708 1.16661 12.9496 0.873225 12.5874 0.713697L12.1843 1.62887C12.3672 1.70941 12.5514 1.86511 13.0842 2.33868L13.7485 1.59122ZM10.9415 1.62887C11.3316 1.45704 11.7942 1.45704 12.1843 1.62887L12.5874 0.713697C11.9404 0.428768 11.1854 0.428768 10.5384 0.713697L10.9415 1.62887ZM2.54235 9.31987C2.62988 9.08648 2.65711 9.01752 2.69196 8.95515L1.81895 8.46744C1.73896 8.61063 1.68363 8.76181 1.60604 8.9687L2.54235 9.31987ZM2.45844 7.74034C2.28419 7.89521 2.1605 8.00362 2.05472 8.12823L2.8171 8.77536C2.86684 8.71677 2.92777 8.66109 3.12275 8.4878L2.45844 7.74034ZM2.69196 8.95515C2.72681 8.89276 2.76859 8.83251 2.8171 8.77536L2.05472 8.12823C1.96512 8.23379 1.88608 8.34729 1.81895 8.46745L2.69196 8.95515ZM0.911738 10.8199C0.76472 11.2119 0.640374 11.5416 0.57036 11.8065C0.502466 12.0632 0.453766 12.3655 0.570464 12.6564L1.49855 12.284C1.50788 12.3073 1.48096 12.2746 1.53714 12.0621C1.5912 11.8576 1.69323 11.5838 1.84805 11.171L0.911738 10.8199ZM3.11345 12.183C2.65214 12.3196 2.33598 12.4129 2.09692 12.4628C1.85106 12.5141 1.76937 12.4997 1.74719 12.4927L1.44507 13.446C1.72397 13.5344 2.0192 13.5006 2.30136 13.4417C2.59033 13.3813 2.9533 13.2734 3.39749 13.1418L3.11345 12.183ZM0.570464 12.6564C0.725329 13.0424 1.05602 13.3227 1.44507 13.446L1.74719 12.4927C1.61222 12.4499 1.53054 12.3638 1.49855 12.284L0.570464 12.6564ZM8.45055 3.16234L12.1575 6.45688L12.8218 5.70942L9.11485 2.41488L8.45055 3.16234ZM7.85597 13.9958H14.3431V12.9958H7.85597V13.9958Z" fill="#292B26"/>
</svg>
