<svg width="24" height="24" viewBox="0 0 24 24" fill="none" xmlns="http://www.w3.org/2000/svg">
<path d="M12.0336 3C7.24196 3 3.35439 7.03125 3.35439 12C3.35439 16.9688 7.24196 21 12.0336 21C12.8337 21 13.4802 21.6703 13.4802 22.5C13.4802 23.3297 12.8337 24 12.0336 24C5.64173 24 0.461304 18.6281 0.461304 12C0.461304 5.37188 5.64173 0 12.0336 0C18.4255 0 23.606 5.37188 23.606 12V13.5C23.606 15.9844 21.6622 18 19.2663 18C17.9418 18 16.753 17.3813 15.9574 16.4109C14.9267 17.3953 13.548 18 12.0336 18C8.83768 18 6.24747 15.3141 6.24747 12C6.24747 8.68594 8.83768 6 12.0336 6C13.2948 6 14.4611 6.41719 15.4104 7.12969C15.6681 6.89531 16.0026 6.75 16.3733 6.75C17.1734 6.75 17.8198 7.42031 17.8198 8.25V13.5C17.8198 14.3297 18.4662 15 19.2663 15C20.0665 15 20.7129 14.3297 20.7129 13.5V12C20.7129 7.03125 16.8253 3 12.0336 3ZM14.9267 12C14.9267 11.2044 14.6219 10.4413 14.0793 9.87868C13.5368 9.31607 12.8009 9 12.0336 9C11.2663 9 10.5305 9.31607 9.98791 9.87868C9.44536 10.4413 9.14055 11.2044 9.14055 12C9.14055 12.7956 9.44536 13.5587 9.98791 14.1213C10.5305 14.6839 11.2663 15 12.0336 15C12.8009 15 13.5368 14.6839 14.0793 14.1213C14.6219 13.5587 14.9267 12.7956 14.9267 12Z" fill="#6D8EEB"/>
</svg>
