<svg width="24" height="24" viewBox="0 0 24 24" fill="none" xmlns="http://www.w3.org/2000/svg">
<path d="M12.0337 4C13.0568 4 14.0379 4.42143 14.7614 5.17157C15.4848 5.92172 15.8912 6.93913 15.8912 8C15.8912 9.06087 15.4848 10.0783 14.7614 10.8284C14.0379 11.5786 13.0568 12 12.0337 12C11.0107 12 10.0295 11.5786 9.30611 10.8284C8.5827 10.0783 8.17629 9.06087 8.17629 8C8.17629 6.93913 8.5827 5.92172 9.30611 5.17157C10.0295 4.42143 11.0107 4 12.0337 4ZM12.0337 14C16.2962 14 19.7486 15.79 19.7486 18V20H4.31885V18C4.31885 15.79 7.77126 14 12.0337 14Z" fill="#6D8EEB"/>
</svg>
