<svg width="30" height="31" viewBox="0 0 30 31" fill="none" xmlns="http://www.w3.org/2000/svg">
<path fill-rule="evenodd" clip-rule="evenodd" d="M19.081 0.827216C17.5806 0.192845 15.9524 -0.0830123 14.3263 0.0216472C12.7001 0.126307 11.1209 0.608587 9.71472 1.43002C8.30853 2.25146 7.11421 3.38931 6.22702 4.75284C5.33983 6.11637 4.78433 7.66785 4.60481 9.28352L4.17177 13.1663L4.16146 13.2622C3.95363 15.0678 3.36442 16.8089 2.4327 18.3707L2.38115 18.4547L1.3896 20.1055L1.36555 20.1466C0.935934 20.8614 0.578497 21.4546 0.346507 21.9448C0.112799 22.4402 -0.0659194 22.9768 0.0234397 23.5442C0.120332 24.1577 0.436522 24.7154 0.913594 25.1144C1.35695 25.4847 1.91029 25.6047 2.45504 25.6596C2.99635 25.7144 3.68888 25.7144 4.52577 25.7144H25.4736C26.3105 25.7144 27.003 25.7144 27.5443 25.6596C28.0891 25.6047 28.6441 25.4847 29.0858 25.1144C29.5629 24.7154 29.879 24.1577 29.9759 23.5442C30.067 22.9751 29.8866 22.4402 29.6529 21.9448C29.4209 21.4546 29.0652 20.8614 28.6338 20.1449L28.6098 20.1055L27.6165 18.4547L27.5667 18.3724C26.635 16.8106 26.0457 15.0695 25.8379 13.264L25.8276 13.1663L25.7554 12.5114C25.2158 12.6897 24.6505 12.8028 24.0628 12.8423L24.1195 13.3565L24.1315 13.4594C24.367 15.5055 25.0347 17.4785 26.0905 19.2483L26.1421 19.3375L27.1371 20.9883C27.5976 21.7528 27.9069 22.2722 28.0994 22.6751C28.2901 23.0831 28.2884 23.2288 28.2798 23.2751C28.2476 23.4801 28.142 23.6664 27.9825 23.7996C27.9447 23.8305 27.821 23.9093 27.3725 23.9539C26.9257 23.9985 26.3225 24.0002 25.4272 24.0002H4.57216C3.67857 24.0002 3.07196 24.0002 2.6286 23.9539C2.17837 23.9093 2.05464 23.8305 2.01684 23.7996C1.85772 23.6669 1.75212 23.4812 1.71954 23.2768C1.71267 23.2288 1.70923 23.0831 1.9017 22.6768C2.09073 22.2722 2.40349 21.7528 2.86403 20.9883L3.85557 19.3375L3.90884 19.2483C4.96487 17.478 5.63256 15.5043 5.86787 13.4577L5.8799 13.3548L6.31295 9.47208C6.45728 8.17024 6.89379 6.91757 7.59006 5.80711C8.28632 4.69666 9.22445 3.75696 10.3348 3.05783C11.4451 2.35869 12.699 1.91809 14.0034 1.76874C15.3079 1.6194 16.6293 1.76515 17.8695 2.19517C18.2108 1.68713 18.6175 1.22605 19.0793 0.823787M22.1965 2.86372C21.6584 3.1012 21.1908 3.47318 20.839 3.94369C22.4253 5.36288 23.4358 7.31241 23.6796 9.42408C24.2896 9.40866 24.8601 9.23552 25.3499 8.9441C25.0173 6.62097 23.9072 4.4782 22.2 2.86372" fill="#292B26"/>
<path d="M10.0198 25.5533C10.3136 26.8287 10.9615 27.9567 11.8619 28.759C12.7624 29.5646 13.8657 30.0001 14.9998 30.0001C16.134 30.0001 17.2372 29.5646 18.1377 28.7607C19.0382 27.955 19.6843 26.8287 19.9799 25.5533" stroke="#292B26" stroke-width="2" stroke-linecap="round"/>
<path d="M23.5919 9.42919C25.4901 9.42919 27.0288 7.89422 27.0288 6.00073C27.0288 4.10724 25.4901 2.57227 23.5919 2.57227C21.6938 2.57227 20.155 4.10724 20.155 6.00073C20.155 7.89422 21.6938 9.42919 23.5919 9.42919Z" fill="#BBDE50"/>
</svg>
