<svg width="24" height="24" viewBox="0 0 24 24" fill="none" xmlns="http://www.w3.org/2000/svg">
<path d="M12.0337 9C11.2665 9 10.5306 9.31607 9.98803 9.87868C9.44547 10.4413 9.14067 11.2044 9.14067 12C9.14067 12.7956 9.44547 13.5587 9.98803 14.1213C10.5306 14.6839 11.2665 15 12.0337 15C12.801 15 13.5369 14.6839 14.0795 14.1213C14.622 13.5587 14.9268 12.7956 14.9268 12C14.9268 11.2044 14.622 10.4413 14.0795 9.87868C13.5369 9.31607 12.801 9 12.0337 9ZM12.0337 17C10.7549 17 9.52848 16.4732 8.62422 15.5355C7.71995 14.5979 7.21194 13.3261 7.21194 12C7.21194 10.6739 7.71995 9.40215 8.62422 8.46447C9.52848 7.52678 10.7549 7 12.0337 7C13.3126 7 14.539 7.52678 15.4433 8.46447C16.3475 9.40215 16.8556 10.6739 16.8556 12C16.8556 13.3261 16.3475 14.5979 15.4433 15.5355C14.539 16.4732 13.3126 17 12.0337 17ZM12.0337 4.5C7.21194 4.5 3.09413 7.61 1.42578 12C3.09413 16.39 7.21194 19.5 12.0337 19.5C16.8556 19.5 20.9734 16.39 22.6417 12C20.9734 7.61 16.8556 4.5 12.0337 4.5Z" fill="#6D8EEB"/>
</svg>
