<svg width="46" height="46" viewBox="0 0 46 46" fill="none" xmlns="http://www.w3.org/2000/svg">
<path fill-rule="evenodd" clip-rule="evenodd" d="M36.4166 21.0832H24.9166V9.58317C24.9166 8.52325 24.058 7.6665 23 7.6665C21.942 7.6665 21.0833 8.52325 21.0833 9.58317V21.0832H9.58329C8.52529 21.0832 7.66663 21.9399 7.66663 22.9998C7.66663 24.0598 8.52529 24.9165 9.58329 24.9165H21.0833V36.4165C21.0833 37.4764 21.942 38.3332 23 38.3332C24.058 38.3332 24.9166 37.4764 24.9166 36.4165V24.9165H36.4166C37.4746 24.9165 38.3333 24.0598 38.3333 22.9998C38.3333 21.9399 37.4746 21.0832 36.4166 21.0832Z" fill="#231F20"/>
<mask id="mask0_330_5836" style="mask-type:luminance" maskUnits="userSpaceOnUse" x="7" y="7" width="32" height="32">
<path fill-rule="evenodd" clip-rule="evenodd" d="M36.4166 21.0832H24.9166V9.58317C24.9166 8.52325 24.058 7.6665 23 7.6665C21.942 7.6665 21.0833 8.52325 21.0833 9.58317V21.0832H9.58329C8.52529 21.0832 7.66663 21.9399 7.66663 22.9998C7.66663 24.0598 8.52529 24.9165 9.58329 24.9165H21.0833V36.4165C21.0833 37.4764 21.942 38.3332 23 38.3332C24.058 38.3332 24.9166 37.4764 24.9166 36.4165V24.9165H36.4166C37.4746 24.9165 38.3333 24.0598 38.3333 22.9998C38.3333 21.9399 37.4746 21.0832 36.4166 21.0832Z" fill="white"/>
</mask>
<g mask="url(#mask0_330_5836)">
<rect width="46" height="46" fill="#F0EBE5"/>
</g>
</svg>
