<svg width="63" height="63" viewBox="0 0 63 63" fill="none" xmlns="http://www.w3.org/2000/svg">
<path fill-rule="evenodd" clip-rule="evenodd" d="M49.875 28.875H34.125V13.125C34.125 11.6734 32.949 10.5 31.5 10.5C30.051 10.5 28.875 11.6734 28.875 13.125V28.875H13.125C11.676 28.875 10.5 30.0484 10.5 31.5C10.5 32.9516 11.676 34.125 13.125 34.125H28.875V49.875C28.875 51.3266 30.051 52.5 31.5 52.5C32.949 52.5 34.125 51.3266 34.125 49.875V34.125H49.875C51.324 34.125 52.5 32.9516 52.5 31.5C52.5 30.0484 51.324 28.875 49.875 28.875Z" fill="#231F20"/>
<mask id="mask0_291_5306" style="mask-type:luminance" maskUnits="userSpaceOnUse" x="10" y="10" width="43" height="43">
<path fill-rule="evenodd" clip-rule="evenodd" d="M49.875 28.875H34.125V13.125C34.125 11.6734 32.949 10.5 31.5 10.5C30.051 10.5 28.875 11.6734 28.875 13.125V28.875H13.125C11.676 28.875 10.5 30.0484 10.5 31.5C10.5 32.9516 11.676 34.125 13.125 34.125H28.875V49.875C28.875 51.3266 30.051 52.5 31.5 52.5C32.949 52.5 34.125 51.3266 34.125 49.875V34.125H49.875C51.324 34.125 52.5 32.9516 52.5 31.5C52.5 30.0484 51.324 28.875 49.875 28.875Z" fill="white"/>
</mask>
<g mask="url(#mask0_291_5306)">
<rect width="63" height="63" fill="#6D8EEB"/>
</g>
</svg>
