<svg width="20" height="12" viewBox="0 0 20 12" fill="none" xmlns="http://www.w3.org/2000/svg">
<path d="M19.5459 0.93955C19.2646 0.658343 18.8832 0.50037 18.4854 0.50037C18.0877 0.50037 17.7062 0.658343 17.4249 0.93955L9.99993 8.36455L2.57493 0.93955C2.29202 0.666313 1.91312 0.515121 1.51982 0.518539C1.12653 0.521956 0.750311 0.67971 0.472198 0.957822C0.194086 1.23593 0.036335 1.61215 0.032917 2.00545C0.0294991 2.39874 0.180691 2.77765 0.453928 3.06055L8.93943 11.546C9.22072 11.8273 9.60218 11.9852 9.99993 11.9852C10.3977 11.9852 10.7791 11.8273 11.0604 11.546L19.5459 3.06055C19.8271 2.77926 19.9851 2.3978 19.9851 2.00005C19.9851 1.6023 19.8271 1.22084 19.5459 0.93955Z" fill="white"/>
</svg>
