<svg width="40" height="59" viewBox="0 0 40 59" fill="none" xmlns="http://www.w3.org/2000/svg">
<circle cx="19.697" cy="31.3637" r="19.697" fill="#F0EBE5"/>
<path d="M23.1134 35.128H17.2094V37.72H22.5734V40.852H17.2094V46H13.2494V40.852H10.1174V37.72H13.2494V35.092H10.1174V31.6H13.2494V20.8H23.4734C25.5854 20.8 27.3374 21.496 28.7294 22.888C30.1214 24.256 30.8174 25.984 30.8174 28.072C30.8174 30.04 30.0734 31.708 28.5854 33.076C27.0974 34.444 25.2734 35.128 23.1134 35.128ZM23.1134 24.688H17.2094V31.6H23.1134C24.1694 31.6 25.0574 31.264 25.7774 30.592C26.4974 29.92 26.8574 29.08 26.8574 28.072C26.8574 27.112 26.4974 26.308 25.7774 25.66C25.0814 25.012 24.1934 24.688 23.1134 24.688Z" fill="#292B26"/>
</svg>
